<?xml version="1.0" encoding="UTF-8"?>
<svg version="1.1" xmlns="http://www.w3.org/2000/svg" width="225" height="225">
<path d="M0 0 C74.25 0 148.5 0 225 0 C225 74.25 225 148.5 225 225 C150.75 225 76.5 225 0 225 C0 150.75 0 76.5 0 0 Z " fill="#FDFDFD" transform="translate(0,0)"/>
<path d="M0 0 C14.27886154 7.43995727 22.88100371 19.22999344 28.40722656 34.03344727 C29.40374101 37.3394291 29.70093094 40.56070578 30 44 C30.10054687 45.13501953 30.10054687 45.13501953 30.203125 46.29296875 C30.62376302 63.29375531 22.72708371 77.5074206 11.484375 89.63671875 C0.52740324 100.05962427 -12.6991487 103.35505759 -27.4296875 103.15234375 C-42.89725532 102.23557301 -55.66000714 94.87580326 -66.3125 83.875 C-69.14561188 80.25587233 -71.20404696 76.13056316 -73.3125 72.0625 C-73.6628833 71.39395996 -74.0132666 70.72541992 -74.37426758 70.03662109 C-80.37918932 57.88447386 -79.25786237 42.72698788 -75.1875 30.1484375 C-70.30029144 17.19090428 -60.95737632 6.97934061 -49 0 C-46.44024436 -1.01589164 -43.96603562 -1.7940183 -41.2890625 -2.4296875 C-38.95331794 -2.93646225 -38.95331794 -2.93646225 -36.73046875 -4.04296875 C-25.28215323 -8.05561153 -10.69556968 -5.00458139 0 0 Z " fill="#040404" transform="translate(135,13)"/>
<path d="M0 0 C10.97534898 9.94156415 17.1831487 23.04057836 18.28125 37.7734375 C18.45692159 45.10772618 18.10376103 51.32749502 15 58 C14.56300781 58.96679688 14.12601562 59.93359375 13.67578125 60.9296875 C6.5746928 75.8773855 -2.71645707 85.36127567 -18 92 C-19.07314453 92.51240234 -19.07314453 92.51240234 -20.16796875 93.03515625 C-30.44655709 97.30961755 -43.71644737 95.98253506 -53.94921875 92.3125 C-68.76352518 85.93912361 -79.91919363 76.24248906 -86.14453125 61.2421875 C-91.60212026 47.08716866 -91.47921347 33.02575624 -85.78125 19 C-79.60661127 5.55300898 -69.0760122 -4.61434178 -55.33203125 -10.22265625 C-35.47430987 -16.84189671 -16.38836725 -12.32083598 0 0 Z " fill="#030303" transform="translate(207,122)"/>
<path d="M0 0 C8.75192119 6.91021256 16.11762759 17.65017211 18.6015625 28.5859375 C19.16491619 33.41310536 19.316861 38.20506712 19.375 43.0625 C19.38917969 43.98474365 19.40335937 44.9069873 19.41796875 45.85717773 C19.3170761 60.01367733 13.36894577 72.43655203 3.6640625 82.64453125 C-7.41899378 92.4437731 -22.28950586 97.94582552 -37.11328125 97.3125 C-51.29814734 95.77692586 -65.94606478 89.73344361 -75.05078125 78.4609375 C-85.0691673 65.16413993 -89.41850148 51.86440647 -88 35 C-85.76615118 21.15013729 -78.55882572 8.4920278 -67.36328125 0 C-45.55030479 -14.43826116 -21.81295944 -15.25337883 0 0 Z " fill="#030303" transform="translate(88,120)"/>
<path d="M0 0 C7.22272508 4.25010693 14.0220157 10.63195133 17.5 18.3125 C18.99846293 29.36366414 18.51923902 38.56043615 11.75 47.6875 C6.34989242 54.18574266 0.76364144 58.6509782 -7 62 C-7.7734375 62.34804687 -8.546875 62.69609375 -9.34375 63.0546875 C-14.83426072 65.00866337 -21.43983538 65.85134371 -27.15625 64.484375 C-33.34008445 61.39245777 -38.12699095 54.63196951 -40.75 48.375 C-43.69656989 39.09605011 -45.26638092 29.77432013 -45.3125 20.0625 C-45.31789795 19.37744385 -45.3232959 18.6923877 -45.32885742 17.98657227 C-45.24193513 11.75159829 -44.68448052 5.9371526 -40.5 1.125 C-39.2625 0.073125 -39.2625 0.073125 -38 -1 C-37.34 -1.66 -36.68 -2.32 -36 -3 C-24.40972141 -7.85375303 -10.80475238 -5.70418492 0 0 Z " fill="#FCFCFC" transform="translate(193,133)"/>
<path d="M0 0 C3.54368957 2.36046776 6.58467784 4.78911341 9.3125 8.0625 C9.3125 8.7225 9.3125 9.3825 9.3125 10.0625 C9.9725 10.0625 10.6325 10.0625 11.3125 10.0625 C15.47282227 18.2902802 17.03665884 26.5025347 14.65234375 35.57421875 C10.77190216 45.19972971 3.74776002 52.2910063 -4.6875 58.0625 C-5.37457031 58.57167969 -6.06164062 59.08085937 -6.76953125 59.60546875 C-13.24927083 63.89724431 -20.10239831 64.12957175 -27.6875 63.0625 C-31.11328125 61.53125 -31.11328125 61.53125 -33.6875 60.0625 C-33.6875 59.4025 -33.6875 58.7425 -33.6875 58.0625 C-34.6775 57.7325 -35.6675 57.4025 -36.6875 57.0625 C-40.88422315 51.94556512 -42.84376238 45.17997441 -44.9375 39 C-45.19571533 38.24468994 -45.45393066 37.48937988 -45.7199707 36.71118164 C-48.14053729 29.29472037 -48.84108521 22.19263241 -48.9375 14.375 C-48.96328125 13.11300781 -48.9890625 11.85101563 -49.015625 10.55078125 C-48.52987774 5.38682521 -46.34958257 2.28416798 -42.5 -1.0625 C-30.28732975 -10.99649593 -12.77854625 -7.40313982 0 0 Z " fill="#FCFCFC" transform="translate(78.6875,133.9375)"/>
<path d="M0 0 C2.83042189 2.16643593 5.57506958 4.38159109 8 7 C8 7.66 8 8.32 8 9 C8.66 9 9.32 9 10 9 C14.93896223 16.11210561 14.60952656 23.58315535 14 32 C11.77078665 43.61299659 3.51203765 51.79372152 -5.7578125 58.59375 C-12.39833725 62.75853904 -20.23982593 64.56121845 -28 63 C-38.6500871 57.27098763 -44.15556992 43.05542598 -47.9765625 32.234375 C-50.51370158 23.55593667 -52.54219055 11.84787726 -48.81640625 3.27734375 C-37.9292288 -10.69061773 -13.56307051 -8.52908472 0 0 Z " fill="#FCFCFC" transform="translate(136,33)"/>
</svg>
