<?xml version="1.0" standalone="no"?>
<!DOCTYPE svg PUBLIC "-//W3C//DTD SVG 20010904//EN"
 "http://www.w3.org/TR/2001/REC-SVG-20010904/DTD/svg10.dtd">
<svg version="1.0" xmlns="http://www.w3.org/2000/svg"
 width="300.000000pt" height="168.000000pt" viewBox="0 0 300.000000 168.000000"
 preserveAspectRatio="xMidYMid meet">

<g transform="translate(0.000000,168.000000) scale(0.100000,-0.100000)"
fill="#000000" stroke="none">
<path d="M1136 1275 l-47 -25 -294 0 -295 0 -15 -24 c-14 -20 -15 -69 -13
-359 3 -323 4 -337 23 -351 16 -13 57 -15 218 -16 180 0 197 -1 198 -17 1 -10
5 27 10 82 4 55 19 144 33 198 40 155 145 357 221 427 25 22 24 20 -7 -25 -76
-107 -186 -362 -213 -492 l-6 -31 37 31 c59 52 108 103 127 136 l18 30 -42
-14 c-23 -9 -44 -13 -47 -11 -4 4 30 21 94 46 28 11 121 198 134 268 12 63 5
101 -23 135 -33 38 -57 41 -111 12z m-62 -47 c-5 -7 -22 -33 -40 -58 -67 -95
-132 -257 -121 -301 3 -10 1 -16 -4 -13 -13 8 -29 -38 -18 -52 6 -8 -2 -10
-26 -9 -19 2 -35 -1 -35 -6 0 -5 -12 -4 -26 1 -14 6 -75 10 -135 10 -78 0
-109 3 -109 12 0 6 -6 4 -13 -7 -8 -10 -19 -15 -25 -11 -7 4 -12 1 -12 -6 0
-9 -3 -9 -10 2 -5 8 -10 106 -10 222 0 187 2 208 18 217 27 16 575 15 566 -1z"/>
<path d="M1210 832 c-39 -19 -56 -55 -46 -97 7 -28 20 -41 95 -97 58 -43 68
-60 56 -94 -22 -62 -124 -49 -144 18 l-9 33 -1 -45 c-1 -50 -6 -47 93 -52 61
-4 96 28 96 87 0 49 -17 69 -95 120 -36 23 -57 43 -61 61 -8 32 5 58 32 62 10
2 23 8 29 13 15 15 -7 11 -45 -9z"/>
<path d="M1541 840 c-78 -19 -131 -86 -131 -167 0 -81 36 -135 110 -167 19 -8
51 -31 70 -51 48 -50 81 -65 137 -63 36 1 40 2 16 5 -22 3 -46 18 -73 45 -22
23 -40 44 -40 48 0 4 13 13 29 20 39 16 76 57 96 104 52 124 -77 260 -214 226z
m116 -26 c31 -20 52 -63 59 -127 15 -128 -87 -222 -185 -170 -103 54 -98 263
8 307 39 16 82 13 118 -10z"/>
<path d="M1808 838 c21 -11 22 -15 22 -164 0 -135 -2 -154 -17 -163 -13 -8 13
-10 95 -11 106 0 112 1 112 21 0 19 -1 19 -22 5 -27 -19 -99 -21 -116 -4 -8 8
-12 56 -12 150 0 125 2 140 20 158 l20 20 -62 -1 c-53 0 -59 -2 -40 -11z"/>
<path d="M1288 828 c12 -6 22 -14 22 -18 0 -3 7 -15 15 -26 13 -18 14 -17 15
17 0 35 -1 36 -37 37 -34 0 -36 -1 -15 -10z"/>
<path d="M2085 770 c-3 -6 1 -13 10 -16 19 -8 30 0 20 15 -8 14 -22 14 -30 1z"/>
<path d="M2236 722 c-4 -10 -16 -24 -29 -30 -16 -8 -18 -11 -6 -11 14 -1 18
-16 20 -86 3 -59 8 -88 18 -94 17 -11 65 5 83 27 12 15 11 16 -4 4 -9 -8 -27
-12 -40 -10 -20 3 -23 9 -26 57 -4 78 3 99 36 104 l27 4 -27 2 c-16 0 -29 6
-29 11 -1 6 -2 14 -3 19 -2 20 -14 22 -20 3z"/>
<path d="M2085 691 c-28 -6 -28 -7 -7 -13 20 -6 22 -12 22 -86 0 -68 -3 -81
-17 -85 -10 -3 7 -5 37 -5 30 0 48 2 40 5 -26 10 -30 25 -30 111 0 45 -3 81
-7 81 -5 -1 -21 -4 -38 -8z"/>
<path d="M2407 680 c-50 -40 -59 -127 -16 -166 31 -28 97 -23 120 7 27 35 23
44 -7 20 -45 -35 -94 -23 -109 27 -5 17 -2 22 11 22 29 0 104 49 104 68 0 44
-59 56 -103 22z m61 -27 c3 -23 -30 -53 -60 -53 -22 0 -23 12 -2 51 18 36 57
38 62 2z"/>
<path d="M921 424 c0 -11 3 -14 6 -6 3 7 2 16 -1 19 -3 4 -6 -2 -5 -13z"/>
</g>
</svg>
